#!OML:ASF X:\für Bonn\!DataBase\2005_08_10_Bjorn_Final\c3d\bjorn.ASF
:FULLY-SPECIFIED
:DEGREES
110
root 1.64882 18.7923 3.29086 -220.697 -40.337 -155.471
lowerback 32.7778 -3.30106 -3.32228
upperback 23.7004 -11.9485 0.529361
thorax 10.465 -9.4914 4.16622
lowerneck -1.45649 -4.64367 0.645911
upperneck 6.66726 -10.8055 25.0809
head 3.63857 -5.60243 7.17034
rclavicle 3.81667e-014 -4.13472e-014
rhumerus -34.1733 -4.13408 -81.0798
rradius 31.34
rwrist 14.9032
rhand -5.36289 10.8854
rfingers 7.12502
rthumb 20.4447 -18.0582
lclavicle 3.81667e-014 -4.13472e-014
lhumerus 66.2507 -21.7576 78.9312
lradius 116.814
lwrist 8.64089
lhand -40.1551 -23.8435
lfingers 7.12502
lthumb -13.1173 5.72397
rfemur -90.8668 -11.4943 15.6537
rtibia 130.702
rfoot 10.4469 23.4689
rtoes -19.8608
lfemur 9.74924 -17.9132 -6.88009
ltibia 33.7606
lfoot -13.1112 -11.3838
ltoes -3.26358
111
root 1.6406 18.7803 3.29329 -220.44 -40.0274 -155.642
lowerback 32.5897 -3.3049 -3.30821
upperback 23.6513 -11.931 0.549639
thorax 10.4759 -9.47298 4.16223
lowerneck -1.41288 -4.69789 0.467502
upperneck 6.54974 -10.8505 25.1702
head 3.61492 -5.63882 7.22922
rclavicle -3.81667e-014 -2.8625e-014
rhumerus -34.1758 -4.05731 -80.842
rradius 31.2993
rwrist 15.0134
rhand -5.38429 10.8507
rfingers 7.12502
rthumb 20.4241 -18.0952
lclavicle -3.81667e-014 -2.8625e-014
lhumerus 66.0042 -21.7753 79.1985
lradius 117.122
lwrist 8.24187
lhand -40.2825 -23.97
lfingers 7.12502
lthumb -13.2401 5.58946
rfemur -90.6826 -11.2758 15.8325
rtibia 130.654
rfoot 10.5841 23.6863
rtoes -19.7038
lfemur 9.58577 -17.8245 -6.89517
ltibia 34.0703
lfoot -13.3225 -11.1188
ltoes -3.33824
112
root 1.63105 18.7681 3.29599 -220.162 -39.7225 -155.83
lowerback 32.3658 -3.3279 -3.25844
upperback 23.5938 -11.9159 0.539275
thorax 10.4779 -9.44227 4.10667
lowerneck -1.29311 -4.75398 0.322527
upperneck 6.39015 -10.8811 25.2471
head 3.5608 -5.6767 7.28259
rclavicle 4.6118e-014 -2.8625e-014
rhumerus -34.1855 -4.12534 -80.6271
rradius 31.2338
rwrist 15.1611
rhand -5.40678 10.8692
rfingers 7.12502
rthumb 20.4025 -18.079
lclavicle 4.6118e-014 -2.8625e-014
lhumerus 65.722 -21.8185 79.4471
lradius 117.381
lwrist 7.78438
lhand -40.4448 -24.0695
lfingers 7.12502
lthumb -13.3966 5.47975
rfemur -90.4368 -11.0901 15.9949
rtibia 130.593
rfoot 10.6216 23.9508
rtoes -19.8238
lfemur 9.4496 -17.736 -6.93552
ltibia 34.3276
lfoot -13.5455 -10.8247
ltoes -3.57499
113
root 1.61989 18.7605 3.29898 -219.857 -39.3872 -156.037
lowerback 32.096 -3.35438 -3.2128
upperback 23.5302 -11.9032 0.54435
thorax 10.4953 -9.41353 4.06459
lowerneck -1.21494 -4.80448 0.0976694
upperneck 6.25642 -10.9059 25.3316
head 3.52533 -5.70579 7.35091
rclavicle 7.95139e-014 -6.36111e-015
rhumerus -34.1943 -4.22159 -80.3789
rradius 31.1997
rwrist 15.4019
rhand -5.4935 10.9061
rfingers 7.12502
rthumb 20.3192 -18.0509
lclavicle 7.95139e-014 -6.36111e-015
lhumerus 65.3845 -21.8217 79.7395
lradius 117.625
lwrist 7.24874
lhand -40.6938 -24.1689
lfingers 7.12502
lthumb -13.6365 5.36445
rfemur -90.1282 -10.8126 16.1412
rtibia 130.502
rfoot 10.5996 24.1166
rtoes -19.9273
lfemur 9.34778 -17.6029 -6.96823
ltibia 34.5074
lfoot -13.7209 -10.5204
ltoes -3.81271
114
root 1.60716 18.7567 3.30191 -219.519 -39.0603 -156.28
lowerback 31.7901 -3.39119 -3.17457
upperback 23.4508 -11.8916 0.530451
thorax 10.5052 -9.37829 4.00508
lowerneck -1.10232 -4.86117 -0.100849
upperneck 6.14549 -10.9413 25.3881
head 3.48905 -5.74008 7.40629
rclavicle -1.43125e-014 3.18055e-015
rhumerus -34.2445 -4.28602 -80.1881
rradius 31.2045
rwrist 15.5965
rhand -5.6569 10.9094
rfingers 7.12502
rthumb 20.1621 -18.0643
lclavicle -1.43125e-014 3.18055e-015
lhumerus 64.916 -21.8287 79.9988
lradius 117.881
lwrist 6.61793
lhand -41.0504 -24.1613
lfingers 7.12502
lthumb -13.9802 5.34858
rfemur -89.7481 -10.5016 16.2426
rtibia 130.381
rfoot 10.545 24.1827
rtoes -20.1229
lfemur 9.28869 -17.4503 -7.0334
ltibia 34.5934
lfoot -13.8736 -10.1935
ltoes -4.26276
